<svg xmlns="http://www.w3.org/2000/svg" viewBox="0 4 52 17">
  <path d="M13.88 5 q0.28 0 0.49 0.21 t0.21 0.49 l0 13.4 q0 0.28 -0.21 0.49 t-0.49 0.21 l-1.76 0 q-0.36 0 -0.58 -0.28 l-9.78 -13.4 q-0.12 -0.16 -0.14 -0.36 t0.07 -0.38 t0.26 -0.28 t0.37 -0.1 l1.76 0 q0.16 0 0.32 0.07 t0.24 0.21 l7.02 9.54 l0 -9.12 q0 -0.28 0.2 -0.49 t0.5 -0.21 l1.52 0 z"/>
  <path d="M3.84 14.7 q0.28 0 0.49 0.2 t0.21 0.5 l0 3.7 q0 0.28 -0.21 0.49 t-0.49 0.21 l-1.52 0 q-0.28 0 -0.49 -0.21 t-0.21 -0.49 l0 -3.7 q0 -0.3 0.21 -0.5 t0.49 -0.2 l1.52 0 z"/>
  <path d="M32.188 5.380000000000001 q0.1 0.18 0.09 0.38 t-0.13 0.36 l-5.54 8 l0 5.14 q0 0.28 -0.21 0.49 t-0.49 0.21 l-1.54 0 q-0.3 0 -0.51 -0.21 t-0.21 -0.49 l0 -5.86 q0 -0.2 0.14 -0.4 l5.34 -7.7 q0.1 -0.14 0.25 -0.22 t0.33 -0.08 l1.86 0 q0.2 0 0.37 0.1 t0.25 0.28 z"/>
  <path d="M23.768 9.78 q-0.08 0.18 -0.25 0.28 t-0.37 0.1 l-1.86 0 q-0.36 0 -0.6 -0.3 l-2.6 -3.74 q-0.1 -0.16 -0.11 -0.36 t0.07 -0.38 t0.25 -0.28 t0.37 -0.1 l1.88 0 q0.34 0 0.58 0.3 l2.6 3.74 q0.1 0.16 0.11 0.36 t-0.07 0.38 z"/>
  <path d="M49.416 5 q0.28 0 0.49 0.21 t0.21 0.49 l0 13.4 q0 0.28 -0.21 0.49 t-0.49 0.21 l-1.52 0 q-0.3 0 -0.5 -0.21 t-0.2 -0.49 l0 -9.04 l-3.7 4.76 q-0.22 0.26 -0.56 0.26 l0 0 q-0.16 0 -0.32 -0.07 t-0.24 -0.21 l-6.56 -8.68 q-0.12 -0.14 -0.14 -0.35 t0.08 -0.38 t0.26 -0.28 t0.36 -0.11 l1.76 0 q0.34 0 0.56 0.28 l4.24 5.6 l4.14 -5.6 q0.22 -0.28 0.58 -0.28 l1.76 0 z"/>
  <path d="M37.896 14.7 q0.28 0 0.49 0.2 t0.21 0.5 l0 3.7 q0 0.28 -0.21 0.49 t-0.49 0.21 l-1.52 0 q-0.28 0 -0.49 -0.21 t-0.21 -0.49 l0 -3.7 q0 -0.3 0.21 -0.5 t0.49 -0.2 l1.52 0 z"/>
</svg>